<svg width="259" height="72" viewBox="0 0 259 72" fill="none" xmlns="http://www.w3.org/2000/svg">
<path d="M252.056 30.4459C253.352 30.7044 254.84 31.0065 255.629 32.1361C255.975 32.6542 256.131 33.272 256.287 33.842C256.34 34.0797 256.712 35.7919 256.129 35.3745C256.031 35.2333 256.121 34.9924 255.974 34.8045C255.779 34.6176 255.639 34.8117 255.491 34.5761C255.289 34.1026 255.04 33.6302 254.791 33.1578C254.74 33.0155 254.556 33.354 254.407 33.0706C254.544 32.7809 254.35 32.6418 254.108 32.5037C253.818 32.3666 253.824 32.6532 253.634 32.7051C253.35 32.8069 253.1 32.2867 252.864 32.4352C252.581 32.5847 252.92 32.8162 253.259 33C253.501 33.1381 253.649 33.3738 253.168 33.2409C252.543 33.0633 251.103 32.7602 250.497 33.4424C250.124 33.8805 250.04 34.408 250.004 34.9344C250.011 35.2687 250.525 36.9299 250.768 37.1158C251.351 37.5809 251.655 38.3388 252.048 38.8559C252.394 39.374 252.886 40.0322 253.226 40.2638C254.013 41.2979 254.938 42.0901 255.4 43.5613C255.661 44.6068 255.146 45.0958 254.591 45.9202C254.312 46.2608 253.985 46.6024 253.509 46.7083C253.128 46.7644 252.789 46.5329 252.411 46.7322C251.701 47.0821 251.04 47.431 250.278 47.5432C249.986 47.3106 250.414 47.2057 250.502 46.8693C250.546 46.6772 250.252 46.3491 250.256 46.5402C250.263 46.8745 249.797 47.4103 249.325 47.6595C248.563 47.7716 247.612 47.9834 247.119 47.2774C246.825 46.9493 246.726 46.8081 246.86 46.3752C247.086 45.7968 247.329 45.9827 247.901 45.9225C249.517 45.505 250.417 45.151 251.79 44.5477C252.026 44.447 253.215 44.1822 253.208 43.8479C253.186 42.8449 251.149 41.4557 250.003 39.2827C249.306 38.0077 248.278 36.8832 248.007 35.4079C247.946 34.788 247.923 33.7373 248.391 33.297C248.72 33.051 248.375 32.5329 248.461 32.1009C248.637 31.4281 251.384 30.3171 252.056 30.4459ZM249.121 33.9023C249.111 33.4247 248.919 33.3811 248.54 33.5327C248.218 34.1131 249.141 34.8098 249.121 33.9023Z" fill="black"/>
<path d="M246.228 43.8086C246.604 43.5138 246.864 44.4638 246.633 44.8511C246.49 44.8542 246.337 44.4274 246.149 44.5749C246.009 44.7213 246.348 44.905 246.255 45.0504C246.116 45.2446 245.866 44.7244 245.678 44.8718C245.256 45.2633 245.738 45.4439 245.31 45.5488C244.693 45.7056 245.029 45.7938 244.5 45.6142C244.354 45.5218 244.36 45.8084 244.168 45.7648C243.976 45.7212 243.871 45.2934 243.682 45.3931C243.351 45.5436 243.217 45.9766 242.884 46.0316C242.361 46.1386 242.558 46.421 242.127 46.3826C241.648 46.3452 241.789 46.1988 241.505 46.3483C241.033 46.5975 240.462 46.7055 239.985 46.7637C238.509 46.9869 236.726 46.309 234.608 45.5905C233.788 45.2261 232.874 44.9593 232.236 44.2086C231.597 43.3625 230.75 41.7563 231.108 40.6495C231.331 39.9279 231.791 39.1055 231.967 38.4327C232.055 38.0486 232.142 37.6644 232.326 37.3259C232.603 36.8898 232.943 37.1691 233.321 36.9698C233.794 36.7206 233.831 36.2419 234.301 35.8972C234.583 35.6522 235.106 35.5452 235.146 35.1621C235.184 34.7312 233.935 34.4239 234.35 33.7459C234.581 33.3586 234.963 33.3503 235.39 33.1977C235.863 32.9963 236.164 33.6587 236.411 34.0356C237.052 34.9295 236.53 35.0842 236.023 35.9553C235.7 36.488 235.624 37.3975 235.108 37.8388C234.733 38.1814 234.499 38.3776 234.414 38.8573C234.194 39.7222 234.341 39.9101 235.146 39.5582C237.272 38.4607 239.14 36.4609 240.236 34.1435C240.466 33.7084 241.659 31.4367 241.131 31.3526C240.364 31.2259 239.461 31.4367 239.044 32.0669C238.813 32.4065 238.733 33.1249 238.347 32.9422C237.432 32.6276 236.78 33.4064 235.666 32.7138C235.278 32.4834 236.544 31.3568 237.02 31.2509L238.746 29.3498C239.125 29.1982 239.452 28.8566 239.88 28.7517C240.307 28.5991 240.648 28.9261 241.028 28.8223C241.645 28.6177 241.55 28.6198 242.038 29.087L243.207 30.1128C243.645 30.4856 242.911 31.8872 243.344 32.0212C243.969 32.1987 243.196 34.0313 242.966 34.4186C242.325 35.7226 241.395 36.8897 240.42 38.201C240.189 38.5405 240.155 39.2102 239.773 39.2185C239.152 39.2321 237.092 41.1882 236.343 41.8735C236.015 42.1673 235.536 42.1299 235.158 42.3293C234.686 42.5785 234.162 42.6855 234.889 43.1475L236.151 44.0279C237.023 44.5823 238.458 44.6467 239.509 44.6238L240.99 44.6394C241.563 44.6269 242.135 44.5666 242.657 44.3642C243.178 44.1617 244.415 43.9436 244.989 43.9312C245.466 43.9208 245.466 43.9208 245.857 44.2946C246.052 44.4814 245.994 44.0049 246.228 43.8086ZM240.692 35.3281C240.6 35.4735 240.221 35.6251 240.368 35.813C240.86 36.4713 240.697 35.5669 241.168 35.2222C241.403 35.0737 241.733 34.8754 241.967 34.6314C242.48 34.0469 243.23 33.3616 242.884 32.8435C242.489 32.2787 241.807 33.8704 241.531 34.3542C241.439 34.4996 241.162 34.9834 241.016 34.8432C240.821 34.6564 240.692 35.3281 240.692 35.3281ZM247.09 43.8854C247.908 44.1543 248.29 44.146 247.395 44.7389C247.007 44.4607 246.814 44.3693 247.09 43.8854Z" fill="black"/>
<path d="M239.224 11.5162C239.089 11.9014 238.626 12.5805 238.441 12.8712C238.167 13.4506 237.511 14.0382 237.286 14.6643C236.755 16.635 235.912 17.4178 234.106 20.0852C233.32 21.2969 232.635 22.7453 231.943 23.8594C231.296 24.8769 230.536 27.2826 229.452 27.9751C229.263 28.0748 229.459 28.3094 229.418 28.5971C229.215 30.2739 228.153 31.9694 227.422 33.5144C226.51 35.4933 226.002 38.5147 226.048 40.6162C226.07 41.6191 225.666 42.8225 226.306 43.7164C226.797 44.3269 228.147 44.871 227.733 45.5967C227.458 46.1283 226.74 46.0962 226.208 45.7733C225.772 45.4961 225.384 45.2656 224.905 45.1804C224.274 44.7641 223.866 43.5784 223.662 42.9617C223.505 42.3439 223.395 41.6773 223.38 41.0087C223.336 38.955 223.959 36.839 224.49 34.9161C224.623 34.4354 225.521 31.7877 224.948 31.8002C224.442 32.7191 222.874 33.0877 222.992 34.1364C222.999 34.4707 220.059 37.6884 220.059 37.6884C219.685 38.0787 219.112 38.0912 218.789 38.6239C218.65 38.818 218.092 39.5469 217.472 39.5604C217.09 39.5687 218.345 37.9646 216.988 39.2842C216.753 39.4805 217.336 39.8978 217.293 40.1377C217.254 40.5208 216.738 40.9621 216.393 40.4918C215.851 39.739 215.331 39.9893 215.871 40.6465C216.312 41.1625 216.5 41.015 216.078 41.4065C215.656 41.7502 215.226 41.7595 214.948 42.1478C214.646 41.4854 213.788 41.5519 214.524 42.4438C214.77 42.7729 214.236 42.4022 213.955 42.6473C213.814 42.7459 213.432 42.7542 213.58 42.9899C214.515 44.2119 211.128 46.6748 210.557 46.7828C209.367 46.9998 208.298 48.361 207.003 48.1502C206.667 48.1098 205.508 47.5138 205.496 46.9884C205.487 46.5586 204.904 46.1412 204.9 45.9502C204.875 44.8039 205.829 42.5374 206.52 41.3278C207.67 39.2958 208.944 36.3533 210.848 36.0252C211.038 35.9733 209.967 37.239 210.161 37.3781C210.745 37.8432 211.144 36.4488 211.334 36.3969C211.348 37.0178 212.364 37.6169 211.567 38.3032C210.862 38.8441 209.677 39.3 209.649 40.2084C209.614 40.7826 208.877 42.041 208.696 42.5228C208.24 43.5361 207.073 44.8039 207.761 45.649C208.056 46.0249 209.129 44.8547 209.554 44.6066C210.074 44.3563 210.551 44.2982 211.021 43.9535C211.492 43.6565 211.583 43.4156 212.063 43.5485C212.255 43.5921 212.6 44.0625 212.974 43.6721C213.161 43.4769 212.863 42.9577 212.715 42.7698C212.419 42.3462 212.621 42.8196 212.435 43.0626C211.972 43.7416 211.748 42.2175 212.03 42.0202C212.313 41.8707 212.593 41.5301 212.877 41.4283C213.114 41.3276 212.844 42.098 212.991 42.286C213.383 42.7075 213.46 41.8457 213.688 41.3629C213.916 40.8324 214.102 40.6372 214.573 40.2924C215.137 39.8501 215.608 39.5532 215.881 38.9261C216.293 38.1048 217.868 38.0227 217.229 37.1765C216.983 36.8474 216.791 36.8516 216.64 36.4726C216.587 36.2348 216.342 35.9535 216.432 35.7126C216.477 35.5683 217.482 35.642 217.575 35.5444C217.714 35.3502 217.655 34.8259 217.463 34.7823C217.128 34.7418 216.702 34.9422 216.503 34.5643C216.254 34.0918 214.814 33.7887 214.97 34.4065C214.737 34.6505 214.187 33.5634 213.531 34.1511C213.155 34.446 214.451 34.7045 214.36 34.8976L213.852 35.7209C213.628 36.3948 213.315 35.207 213.027 35.1177C212.064 34.8042 212.027 35.2828 212.337 34.1771C213.47 33.5312 214.364 32.8906 215.699 32.766C216.176 32.7078 216.651 32.6019 217.132 32.7348C218.237 32.9975 218.646 34.2309 218.54 35.9534L219.987 34.3929C221.254 33.3141 222.131 31.9093 223.152 30.5014C223.85 29.6261 224.496 28.6086 225.195 27.781C225.617 27.3896 225.667 27.5319 226.087 27.0449C226.74 26.3139 227.008 25.448 227.66 24.6693C229.103 22.9177 231.051 20.1995 231.959 18.0295C232.65 16.8199 232.487 15.9155 233.251 15.8989C233.346 15.8968 233.165 16.3308 233.356 16.3267C236.467 16.5934 233.011 15.8563 233.566 15.0319C234.029 14.3529 234.708 12.6179 235.32 12.1746C235.745 11.9264 235.888 11.9233 235.877 11.3979C235.872 11.2069 236.061 11.1072 236.201 10.9608C236.576 10.6182 237.2 10.7479 237.674 10.5465C238.478 10.1945 239.405 11.0345 239.224 11.5162ZM215.035 41.7637C215.318 41.6142 216.031 41.4075 215.883 41.2196C215.636 40.8427 215.149 40.4233 214.866 40.5728C214.726 40.7669 214.886 41.528 215.035 41.7637ZM216.915 40.337C216.905 39.8594 216.461 39.2479 216.184 39.684C215.999 39.9747 216.63 40.391 216.915 40.337Z" fill="black"/>
<path d="M201.394 32.026C201.399 32.2171 201.632 31.9731 201.777 32.0177C201.921 32.0623 201.747 32.8784 201.417 33.0767C201.229 33.2242 201.662 33.3581 201.523 33.5523C201.338 33.843 200.675 34.0963 200.871 34.331C200.97 34.4722 201.248 34.0839 201.253 34.3227C201.287 35.851 200.265 37.2112 199.577 38.5163C199.256 39.1445 198.984 39.8193 198.855 40.4911C198.679 41.1639 198.354 41.601 197.988 42.3735C197.532 43.3869 197.431 45.3004 196.345 45.8974C195.919 46.0978 195.422 45.2008 195.318 44.8208C194.96 43.7773 195.411 42.5251 195.868 41.5595C196.871 39.3397 197.635 37.125 198.835 35.1876C199.855 33.7319 199.351 32.5483 199.487 32.2109C199.623 31.8734 199.566 31.4446 199.845 31.1041C200.217 30.6181 200.554 30.7541 200.99 30.9836C201.618 31.3044 201.383 31.5006 201.394 32.026ZM211.506 13.6006C211.99 13.8768 211.806 14.2153 212.097 14.4001C212.484 14.6306 212.492 15.0127 212.308 15.3511C211.893 16.0291 211.583 14.9369 211.06 15.0916C210.823 15.1445 211.019 15.3792 210.778 15.2889C210.585 15.1975 210.624 14.8144 210.336 14.7251C210.144 14.6815 210.053 14.9224 209.908 14.83C209.763 14.7376 209.66 14.4053 209.802 14.3544C209.992 14.3025 210.188 14.5372 210.234 14.4406C210.326 14.2952 210.316 13.8176 210.123 13.7263C209.881 13.5882 209.844 14.0668 209.606 14.1198C209.32 14.1738 209.206 13.3162 208.929 13.7523C208.976 13.7035 208.412 14.1458 208.7 14.2351C208.893 14.2787 209.177 14.1769 209.322 14.2693C209.807 14.5932 209.483 15.0781 209.152 15.2287L208.392 15.4363C207.635 15.7873 208.024 16.0655 207.603 16.5047C207.463 16.6511 207.906 17.2627 207.472 17.081C206.942 16.8536 207.456 16.3168 207.401 15.9835C207.277 14.6961 207.537 13.4481 208.242 12.9071C208.806 12.5126 209.284 12.5022 209.864 12.824C210.397 13.1469 210.974 13.3255 211.506 13.6006ZM208.154 17.6873C208.343 17.5876 208.583 17.6302 208.588 17.869C208.543 17.9656 208.358 18.2563 208.262 18.2584C208.023 18.2158 207.823 17.8379 208.154 17.6873ZM208.829 17.9593C209.11 17.6665 209.114 17.8576 209.12 18.1441C209.125 18.3829 208.789 18.2947 208.597 18.2511C208.691 18.2013 208.736 18.0569 208.829 17.9593Z" fill="black"/>
<path d="M195.732 32.6271C196.022 32.8119 196.076 33.0974 196.036 33.4328C196.046 33.9104 195.898 33.6747 195.52 33.874C195.093 34.0267 194.718 34.3693 194.39 34.6631C194.015 35.0058 193.64 35.3007 193.165 35.4543C192.691 35.608 192.932 35.7461 192.361 35.8541C192.171 35.906 190.022 38.1508 189.652 38.6845C189.189 39.3635 187.873 40.3956 187.174 41.2231L184.085 44.2051C183.858 44.7356 183.006 45.0887 182.398 45.7231C181.978 46.1623 181.401 45.9837 181.028 46.4218C180.562 46.9576 179.657 47.1206 178.798 47.1393C178.414 47.0999 178.498 46.5247 178.165 46.6275C177.218 47.0303 177.39 46.1187 177.335 45.7854C177.124 44.8822 177.2 43.9726 177.18 43.0652C177.254 42.0601 177.898 40.9471 177.971 39.8943C177.952 39.0346 178.297 37.3069 178.803 36.388C179.124 35.8076 179.41 35.7536 179.982 35.6934L180.564 36.063C181.039 35.9571 181.314 35.4255 181.018 35.0019C180.871 34.8139 180.632 34.8191 180.53 34.5347C181.099 34.3311 181.491 34.7527 181.359 35.2812C181.275 35.8086 181.181 35.9062 180.761 36.3454C180.527 36.5894 181.285 36.2862 180.912 36.7244C180.772 36.8708 180.785 37.4439 180.839 37.7294C180.897 38.206 180.376 38.4085 180.477 38.6929C180.581 39.0729 180.778 39.3554 180.355 39.6513C180.214 39.7499 180.347 39.2692 180.158 39.3689C179.874 39.5184 179.98 39.9939 180.083 40.3262C180.134 40.4684 180.221 40.0842 180.271 40.1787C180.521 40.6989 179.745 42.3882 179.661 42.9156C179.527 43.3486 178.926 44.2695 179.356 44.2602C179.738 44.2519 182.57 42.6134 182.938 41.9842C183.491 41.0165 184.435 40.5182 185.183 39.7374C185.464 39.4923 186.677 38.128 187.059 38.1197C187.775 38.1041 189.295 35.4907 189.389 35.3931L190.508 34.1264C190.929 33.6872 191.445 33.246 192.06 32.9936C192.297 32.8929 192.582 32.8389 192.823 32.9293C193.161 33.0653 193.488 32.7237 193.867 32.5721C194.295 32.4672 195.297 32.3976 195.732 32.6271Z" fill="black"/>
<path d="M175.696 47.3024C175.605 47.4955 175.358 47.1186 175.217 47.2172C174.841 47.5121 175.518 47.8797 175.043 48.0333L174.242 48.5286C173.678 48.9709 173.112 49.3177 172.343 49.0955C171.14 48.7394 170.208 47.6129 169.941 46.3286C169.783 45.6631 169.91 44.8958 169.848 44.2282C169.835 43.655 170.215 43.5512 170.637 43.1598C171.2 42.6697 172.189 42.027 171.65 41.4175C171.013 40.6669 171.461 41.5172 171.052 42.4818C170.962 42.7226 170.464 41.8256 169.804 42.2222C169.475 42.4683 169.283 42.4247 169.337 42.7102C169.395 43.1868 167.845 44.4151 167.469 44.71C166.952 45.1035 166.485 45.5915 165.918 45.8905C165.35 46.1418 165.339 45.6164 164.962 45.8635C164.538 46.1595 164.589 46.3017 164.206 46.2622C163.392 46.1844 162.82 46.2446 163.262 46.8084C163.507 47.0898 163.582 46.1325 163.782 46.5582C164.032 47.0783 163.601 46.9922 164.03 46.9828C164.317 46.9766 164.599 46.7793 164.748 47.015C165.045 47.4864 163.005 48.1519 162.436 48.3554C161.868 48.6067 161.15 48.5745 160.573 48.396C159.996 48.2174 159.931 47.4543 159.493 47.0815C159.007 46.7098 159.114 45.0351 159.246 44.5066C159.555 43.3531 159.728 42.4892 160.231 41.4748L161.562 38.9612C161.886 38.4763 162.259 38.0381 162.679 37.5989C163.146 37.0632 163.515 36.4817 164.279 36.4651C164.751 36.1681 164.499 35.6002 165.213 35.4413C165.216 35.5846 166.112 35.0395 166.207 35.0374C166.772 34.6429 167.693 35.244 168.176 35.4724C169.094 35.9303 170.111 36.5771 169.232 37.8864C169.14 38.0318 168.859 38.3246 168.728 38.9008C168.643 39.3805 168.223 39.8197 168.017 39.1552C168.543 39.1438 168.539 39.0005 168.482 38.5717C168.424 38.0951 168.302 39.0534 168.011 38.8686C167.526 38.5447 167.609 37.9695 167.36 37.4971C167.113 37.1202 166.687 37.3206 166.309 37.5199C165.979 37.7183 165.697 37.9155 165.365 38.0661C165.168 37.7837 164.872 37.3601 164.591 37.6051C164.403 37.7526 165.563 38.3485 165.278 38.4503C163.38 39.0649 163.563 40.8767 162.399 42.2878C161.934 42.8713 161.808 43.6863 161.681 44.4059C161.462 45.3185 161.108 46.6164 162.385 46.0152C162.668 45.8657 163.002 45.8584 163.238 45.7099C164.749 44.8647 165.823 43.7423 166.897 42.5722C167.503 41.89 167.87 41.1653 168.478 40.5787C169.133 39.9432 169.608 39.7895 169.828 38.9247C170.337 38.1491 171.19 37.8438 171.845 37.2084C172.314 36.7681 172.545 36.4286 173.212 36.3185C173.735 36.2116 174.09 37.1595 174.196 37.635C174.307 38.3494 173.982 38.7865 173.805 39.4115C173.086 41.5296 172.34 42.3582 172.095 44.2748C172.009 44.7545 172.311 45.4169 172.464 45.8914C172.669 46.5082 173.067 47.264 173.878 47.1986C174.404 47.1872 175.969 46.6753 175.696 47.3024ZM169.633 38.7378C169.447 38.9807 169.272 39.7491 169.172 39.5123C168.97 39.0389 169.014 38.8468 169.435 38.4554C169.677 38.5935 169.531 38.4533 169.633 38.7378ZM165.736 46.3245C166.157 45.8853 166.063 45.9829 166.027 46.5093C165.987 46.8924 165.841 46.7523 165.736 46.3245Z" fill="black"/>
<path d="M165.908 13.1115C166.3 13.5808 166.118 13.967 165.846 14.6419C165.576 15.4123 165.676 15.649 164.874 16.0965C164.356 16.4423 164.102 15.7788 163.579 15.8858C163.103 15.9917 163.239 15.6542 162.847 15.185C162.309 14.6233 163.631 13.8778 164.146 13.3887C164.754 12.8021 165.418 12.5487 165.908 13.1115ZM163.028 16.9012C163.368 17.1805 163.978 16.6416 163.987 17.0715C163.95 17.5501 163.335 17.8502 163.105 18.2375C162.737 18.9144 161.071 21.3876 160.041 22.3657C159.575 22.9015 159.304 23.6241 159.032 24.299C158.712 24.9749 156.955 27.689 156.441 28.2258C155.555 29.2485 155.21 30.9284 154.469 32.0436C154.024 33.5345 152.999 34.7514 152.458 36.2445C151.825 37.8829 151.577 39.6562 151.137 41.386C150.961 42.1066 150.508 45.4135 150.81 46.1237C151.214 47.1183 152.275 47.5731 153.282 47.7423C153.906 47.8721 154.48 47.9073 155.147 47.7973C155.908 47.6374 155.656 49.2197 155.307 48.5583C154.907 47.7547 154.687 48.6196 154.549 48.8615C154.126 49.2052 153.458 49.2197 153.029 49.2768C150.879 49.3236 149.529 48.7318 148.572 46.5068C148.32 45.8911 148.741 45.4519 148.297 44.8404C147.95 44.2745 148.249 42.6434 148.329 41.9249C148.526 39.9615 149.152 37.9888 149.871 35.9185C150.053 35.4845 150.229 34.8117 150.702 34.5625C151.125 34.2666 151.489 33.3986 151.76 32.6759C151.942 32.2897 151.791 31.9107 151.928 31.621C152.703 29.9317 153.528 28.2892 154.456 27.0266C156.548 24.353 157.115 21.856 159.261 19.4679L160.839 17.3311C161.121 17.1338 161.742 17.1203 161.688 16.8348C161.635 16.597 161.537 16.4558 161.627 16.2149C161.853 15.6366 161.832 16.8317 162.446 16.5316C163.25 16.1319 162.737 16.7164 163.028 16.9012Z" fill="black"/>
<path d="M145.786 39.2566C145.25 40.9885 144.901 42.5251 143.88 43.8853C143.509 44.419 143.012 43.5219 142.928 44.0493C142.842 44.529 143.554 44.2746 143.039 44.7637C142.711 45.0575 142.428 45.2548 142.101 45.5964C141.914 45.7916 141.176 47.0022 140.848 47.2961C140.38 47.7363 139.102 48.2897 138.87 48.6292C138.414 49.6426 135.619 50.7547 134.954 50.9125C133.668 51.1316 132.957 51.386 131.57 51.3206C130.947 51.2386 129.851 51.358 129.27 51.0361C128.689 50.6665 128.245 50.055 127.946 49.4881C127.647 48.9212 127.533 48.0636 127.513 47.1562C127.489 46.0577 127.654 44.8117 127.915 43.6592C128.221 42.3624 128.942 40.3399 130.068 39.4075C130.584 38.9662 130.682 39.0596 131.005 38.527C131.42 37.849 131.872 38.8426 132.293 38.4512C132.807 37.9144 131.558 37.6071 131.974 36.9291C132.488 36.3923 132.778 36.5771 133.344 36.2303C134.335 35.6353 135.549 34.3665 136.426 35.112C136.961 35.5782 136.579 35.5865 137.158 35.8128C137.976 36.0817 137.922 37.9942 137.6 38.5746C137.462 38.8166 137.271 38.8207 137.323 39.0107C137.427 39.3907 137.054 39.8289 136.761 39.5485C136.371 39.1748 135.851 39.425 135.831 38.5176C135.777 38.232 135.803 37.228 135.283 37.4783C134.478 37.8302 133.697 39.2807 133.258 38.8602L132.818 38.392C131.78 38.988 132.972 38.9142 132.986 39.5351C132.992 39.8217 132.762 40.209 132.528 40.453C132.015 41.0375 131.493 41.1922 131.271 41.9616C130.92 43.4027 129.941 44.523 129.689 46.1054C129.566 47.0637 129.448 48.2131 130.462 48.7166C130.898 48.9938 131.474 49.1246 132.095 49.1111C132.812 49.0955 133.572 48.8879 134.281 48.538C134.99 48.1881 135.704 48.0769 136.315 47.5858C137.206 46.8019 138.337 46.1083 139.225 45.1811C139.458 44.8894 140.534 43.8625 140.594 44.3868C140.598 44.5779 140.17 44.6827 140.411 44.7731C141.327 45.1354 142.332 43.0111 142.794 42.2843C143.533 41.1214 144.365 39.8609 143.288 38.642C142.554 37.8457 143.753 38.0585 143.355 37.3504C142.909 36.5956 142.797 38.0315 141.834 37.718C141.353 37.5851 141.778 37.3369 141.58 37.0068C141.431 36.7711 140.957 36.9248 140.818 37.1189C140.725 37.2643 141.014 37.3536 140.824 37.4055C140.492 37.5083 140.523 36.7431 140.289 36.9871C139.682 37.6215 140.401 37.7492 139.515 38.7241C139.141 39.1145 138.908 39.4063 138.568 39.127C138.374 38.9878 138.804 39.0263 138.753 38.8363C138.394 37.745 138.392 37.6495 138.764 37.1636C138.995 36.8241 139.277 36.579 139.657 36.4752C140.178 36.2727 140.098 36.9912 140.425 36.6496C140.612 36.4544 140.178 36.2727 140.415 36.172C140.557 36.1211 140.71 36.5479 140.899 36.4482C141.278 36.2966 141.216 35.6767 141.643 35.5241C142.164 35.3216 143.943 35.8085 144.428 36.1325C145.152 36.499 144.974 37.0763 145.465 37.6868C145.811 38.2048 145.963 38.6316 145.786 39.2566Z" fill="black"/>
<path d="M116.934 14.177C117.327 14.6463 117.144 15.0325 116.872 15.7074C116.602 16.4778 116.703 16.7146 115.9 17.1621C115.382 17.5078 115.129 16.8444 114.606 16.9513C114.13 17.0572 114.266 16.7198 113.874 16.2505C113.336 15.6888 114.657 14.9433 115.172 14.4543C115.781 13.8676 116.444 13.6143 116.934 14.177ZM114.054 17.9668C114.395 18.2461 115.004 17.7072 115.014 18.137C114.976 18.6157 114.362 18.9157 114.131 19.303C113.764 19.98 112.097 22.4532 111.067 23.4313C110.601 23.967 110.33 24.6897 110.058 25.3645C109.738 26.0405 107.982 28.7545 107.468 29.2913C106.582 30.3141 106.236 31.994 105.496 33.1091C105.051 34.6001 104.026 35.817 103.485 37.31C102.852 38.9484 102.604 40.7218 102.163 42.4516C101.988 43.1721 101.534 46.479 101.836 47.1892C102.24 48.1839 103.301 48.6386 104.309 48.8078C104.933 48.9376 105.507 48.9729 106.173 48.8628C106.934 48.7029 106.682 50.2852 106.333 49.6239C105.934 48.8203 105.713 49.6851 105.575 49.9271C105.153 50.2707 104.484 50.2853 104.055 50.3424C101.906 50.3892 100.555 49.7974 99.599 47.5724C99.3467 46.9567 99.7672 46.5175 99.3238 45.9059C98.977 45.3401 99.276 43.709 99.3559 42.9905C99.5521 41.0271 100.178 39.0544 100.898 36.984C101.079 36.55 101.256 35.8772 101.728 35.628C102.152 35.3321 102.515 34.4641 102.786 33.7415C102.969 33.3552 102.817 32.9763 102.954 32.6866C103.73 30.9973 104.554 29.3547 105.483 28.0922C107.575 25.4186 108.141 22.9215 110.288 20.5334L111.866 18.3966C112.148 18.1994 112.769 18.1859 112.715 17.9003C112.662 17.6626 112.563 17.5214 112.654 17.2805C112.88 16.7022 112.858 17.8972 113.473 17.5971C114.276 17.1974 113.764 17.782 114.054 17.9668Z" fill="black"/>
<path d="M97.7693 47.0388C98.1451 46.7439 98.4047 47.6939 98.1742 48.0812C98.0309 48.0843 97.8783 47.6576 97.6904 47.805C97.5502 47.9514 97.8887 48.1352 97.7963 48.2806C97.6572 48.4747 97.4069 47.9546 97.219 48.102C96.7975 48.4934 97.2792 48.6741 96.8515 48.779C96.2337 48.9358 96.5701 49.024 96.0406 48.8444C95.8952 48.752 95.9015 49.0385 95.7094 48.9949C95.5173 48.9513 95.4124 48.5236 95.2234 48.6233C94.8922 48.7738 94.7583 49.2068 94.425 49.2618C93.9017 49.3688 94.099 49.6512 93.6681 49.6128C93.1895 49.5754 93.3297 49.429 93.0462 49.5785C92.5738 49.8277 92.0028 49.9357 91.5262 49.9938C90.0498 50.2171 88.267 49.5391 86.1489 48.8207C85.3287 48.4563 84.415 48.1895 83.7775 47.4388C83.1379 46.5926 82.2907 44.9864 82.6488 43.8796C82.8721 43.158 83.332 42.3357 83.5085 41.6629C83.5957 41.2787 83.6829 40.8946 83.8667 40.5561C84.1439 40.12 84.4844 40.3993 84.8624 40.1999C85.3348 39.9507 85.3721 39.4721 85.8425 39.1274C86.1238 38.8823 86.6471 38.7754 86.6866 38.3923C86.725 37.9614 85.4759 37.6541 85.8912 36.9761C86.1217 36.5888 86.5038 36.5805 86.9305 36.4278C87.404 36.2264 87.7051 36.8888 87.9522 37.2657C88.5928 38.1597 88.0706 38.3144 87.5639 39.1855C87.241 39.7181 87.1653 40.6277 86.6492 41.0689C86.2744 41.4116 86.0398 41.6078 85.9547 42.0875C85.7346 42.9524 85.882 43.1403 86.6867 42.7883C88.813 41.6908 90.6808 39.6911 91.7772 37.3736C92.0067 36.9386 93.1996 34.6668 92.6721 34.5827C91.9049 34.4561 91.0016 34.6669 90.5852 35.2971C90.3537 35.6366 90.2738 36.3551 89.8875 36.1724C88.9728 35.8578 88.3208 36.6365 87.2067 35.944C86.8194 35.7135 88.0851 34.587 88.5606 34.4811L90.2872 32.5799C90.6662 32.4283 90.9932 32.0868 91.421 31.9819C91.8477 31.8292 92.1893 32.1563 92.5693 32.0525C93.186 31.8479 93.0905 31.85 93.5785 32.3172L94.7476 33.343C95.1858 33.7157 94.4518 35.1174 94.8847 35.2513C95.5098 35.4289 94.7373 37.2614 94.5068 37.6487C93.8662 38.9528 92.936 40.1198 91.9611 41.4312C91.7295 41.7707 91.6963 42.4404 91.3142 42.4487C90.6934 42.4622 88.6334 44.4184 87.8838 45.1036C87.5557 45.3975 87.0771 45.3601 86.6992 45.5595C86.2268 45.8087 85.7035 45.9156 86.4303 46.3776L87.6918 47.2581C88.5639 47.8125 89.9988 47.8768 91.0496 47.854L92.5312 47.8695C93.1043 47.857 93.6764 47.7968 94.1976 47.5943C94.7188 47.3919 95.9564 47.1738 96.5296 47.1613C97.0072 47.1509 97.0072 47.1509 97.3976 47.5247C97.5928 47.7116 97.5346 47.235 97.7693 47.0388ZM92.233 38.5583C92.1406 38.7036 91.7617 38.8552 91.9091 39.0432C92.4013 39.7014 92.2382 38.7971 92.7086 38.4524C92.9442 38.3039 93.2744 38.1056 93.508 37.8616C94.0209 37.277 94.7705 36.5917 94.4248 36.0737C94.0302 35.5088 93.3481 37.1005 93.0719 37.5844C92.9795 37.7297 92.7034 38.2136 92.557 38.0734C92.3618 37.8865 92.233 38.5583 92.233 38.5583ZM98.631 47.1156C99.4492 47.3845 99.8313 47.3762 98.9363 47.9691C98.548 47.6908 98.3549 47.5995 98.631 47.1156Z" fill="black"/>
<path d="M73.5367 18.7528C73.2523 18.8546 70.6825 19.3405 70.6337 19.2938C70.3866 18.9169 71.8277 17.0698 72.2004 16.6316C72.6199 16.1447 73.0456 15.9443 73.6665 15.9308C73.6665 15.9308 73.817 16.262 73.9582 16.1634C74.1472 16.0637 74.331 15.7252 74.4275 15.7709C74.7151 15.8124 74.6331 16.4354 74.5905 16.6752C74.4141 17.348 73.9541 18.1703 73.5367 18.7528ZM78.5541 40.7195C79.148 41.6622 79.4533 42.5157 79.473 43.4231C79.4917 44.2828 79.2727 45.1955 78.8657 46.2555C78.7318 46.6885 78.5874 46.6439 78.2573 46.8422C77.9738 46.9917 78.0299 47.3727 77.7973 47.6645C77.517 47.9573 77.1796 47.8213 76.9958 48.1598C76.7207 48.6914 76.2877 48.5574 75.8651 48.9011C75.0169 49.4452 73.5467 49.955 72.6922 50.2125C71.5522 50.524 70.4101 50.74 69.1714 50.9103C68.6481 51.0173 66.3193 51.5935 66.1179 51.1201C66.7315 50.7723 67.586 50.5148 67.9057 49.8388C67.7625 49.8419 67.0917 49.761 66.9993 49.9063C66.5332 50.4421 65.0983 50.3777 64.3372 50.5377C63.0041 50.7578 61.6574 50.357 61.1985 49.0291L61.5266 48.7353C60.995 48.4601 60.3678 48.1871 60.4021 47.5652C60.3875 46.8965 60.1851 46.3753 60.264 45.609C60.3418 44.795 60.835 43.303 61.4891 42.6198C61.7704 42.3748 62.5242 39.6825 63.2541 40.2878C63.739 40.6118 63.0682 40.5308 63.0797 41.0562C63.0921 41.6293 62.8928 41.2514 62.7557 41.541C62.6187 41.8307 63.0963 41.8203 62.9136 42.2066C62.7298 42.5451 62.7381 42.9271 62.6509 43.3113C62.6571 43.5979 62.6146 43.8377 62.3322 44.035C62.0487 44.1845 62.3426 44.5126 62.3467 44.7036C62.4547 45.2747 62.9033 46.125 62.4329 46.4697C62.3395 46.5673 62.1412 46.2372 61.9532 46.3846C61.6252 46.6784 62.1059 46.8113 62.3561 47.3315C62.6572 47.9939 63.4712 48.0718 64.0527 48.4414C65.3983 48.7944 66.5954 48.9117 67.9805 48.8815C68.6014 48.868 69.3167 48.8047 70.0321 48.7413C70.5564 48.6821 71.7608 49.1338 71.8418 48.463L70.9281 48.1962C70.9728 48.0519 73.3473 47.3791 73.6785 47.2285C74.3399 46.8796 76.0478 46.3169 76.5161 45.8766C76.9854 45.4841 77.4276 43.8499 77.2708 43.2321C76.9645 42.3309 76.4682 41.4816 75.785 40.8275C74.1736 39.2379 72.0046 38.3772 69.9322 37.5622C69.112 37.1978 67.9626 37.0795 66.8641 37.1034C66.291 37.1159 65.7667 37.175 65.2423 37.2342C64.338 37.3973 63.1336 36.9456 62.359 36.4847C61.7298 36.1161 61.7288 36.0683 61.8554 35.301C61.9738 34.1517 62.2842 33.0459 62.8355 32.0305C63.7928 29.9072 64.8549 28.2117 66.1548 26.4632C67.735 24.4219 68.8552 21.0049 70.5008 19.7745C70.8487 20.3881 72.2213 19.7849 72.7934 19.7247C72.756 20.2033 71.8641 20.9395 71.5859 21.3278C70.2413 23.2206 69.526 25.4819 68.1358 27.4713C66.7882 29.2208 65.5568 31.9235 64.4532 33.9066C64.2237 34.3416 63.8593 35.1619 64.7138 34.9044C65.7562 34.4994 67.052 34.7579 68.0124 34.9759C69.2116 35.1888 70.2686 35.4525 71.3287 35.8594C74.1237 36.9454 76.8752 38.2235 78.5541 40.7195ZM72.7773 49.7328C73.2445 49.2448 71.8418 48.463 71.8034 48.8939C71.6674 49.2314 72.5437 49.9768 72.7773 49.7328ZM63.7441 38.6525C64.2695 38.6411 64.4138 38.6858 64.1833 39.073C64.3858 39.5943 63.8096 39.4634 63.5624 39.0866C63.3205 38.9485 63.4565 38.611 63.7441 38.6525Z" fill="black"/>
<path d="M58.2074 49.8587C58.116 50.0518 57.8689 49.6749 57.7277 49.7736C57.3519 50.0685 58.0288 50.436 57.5543 50.5897L56.7528 51.0849C56.189 51.5273 55.6232 51.874 54.8538 51.6519C53.6515 51.2958 52.7191 50.1693 52.4522 48.8849C52.2944 48.2194 52.421 47.4521 52.3587 46.7845C52.3463 46.2114 52.7263 46.1075 53.1478 45.7161C53.7105 45.226 54.7 44.5833 54.1611 43.9739C53.5236 43.2232 53.9722 44.0735 53.5631 45.0381C53.4728 45.279 52.9754 44.3819 52.3151 44.7786C51.986 45.0246 51.7939 44.981 51.8479 45.2665C51.906 45.7431 50.3559 46.9714 49.9801 47.2663C49.463 47.6598 48.9958 48.1478 48.4289 48.4468C47.861 48.6981 47.8495 48.1728 47.4727 48.4199C47.049 48.7158 47.0999 48.858 46.7168 48.8186C45.9028 48.7407 45.3307 48.801 45.773 49.3647C46.0181 49.6461 46.0928 48.6888 46.2932 49.1145C46.5434 49.6347 46.1115 49.5485 46.5413 49.5391C46.8279 49.5329 47.1103 49.3356 47.2588 49.5713C47.5557 50.0427 45.5156 50.7083 44.9466 50.9118C44.3787 51.163 43.6612 51.1309 43.0839 50.9523C42.5066 50.7737 42.4423 50.0106 42.0041 49.6379C41.5182 49.2662 41.6251 47.5914 41.7569 47.063C42.0663 45.9094 42.2387 45.0456 42.7422 44.0312L44.0732 41.5175C44.3971 41.0326 44.7699 40.5945 45.1904 40.1553C45.6565 39.6195 46.0262 39.0381 46.7903 39.0214C47.2617 38.7245 47.0104 38.1565 47.7237 37.9977C47.7268 38.141 48.6229 37.5958 48.7184 37.5938C49.2832 37.1992 50.2042 37.8004 50.687 38.0288C51.6048 38.4866 52.6223 39.1335 51.7429 40.4427C51.6505 40.5881 51.3702 40.8809 51.2394 41.4571C51.1543 41.9368 50.7338 42.376 50.5282 41.7115C51.0535 41.7001 51.0504 41.5568 50.9933 41.128C50.9352 40.6514 50.8127 41.6098 50.5219 41.425C50.0371 41.101 50.1201 40.5258 49.8709 40.0534C49.6238 39.6765 49.1981 39.8769 48.8202 40.0763C48.49 40.2746 48.2076 40.4719 47.8764 40.6224C47.6791 40.34 47.3832 39.9164 47.1018 40.1614C46.9139 40.3089 48.0737 40.9048 47.7892 41.0066C45.8912 41.6213 46.074 43.4331 44.9101 44.8441C44.445 45.4276 44.3194 46.2427 44.1917 46.9622C43.9726 47.8748 43.6186 49.1727 44.8957 48.5715C45.1791 48.422 45.5134 48.4147 45.7491 48.2662C47.2598 47.4211 48.3344 46.2987 49.4079 45.1285C50.0143 44.4463 50.3808 43.7216 50.9892 43.135C51.6443 42.4996 52.1188 42.3459 52.3389 41.481C52.8477 40.7054 53.7011 40.4001 54.3562 39.7647C54.8245 39.3245 55.056 38.9849 55.7226 38.8749C56.2459 38.7679 56.601 39.7158 56.7069 40.1914C56.818 40.9057 56.493 41.3428 56.3155 41.9679C55.5971 44.086 54.8506 44.9145 54.6056 46.8312C54.5204 47.3109 54.8215 47.9733 54.9752 48.4478C55.1798 49.0645 55.5785 49.8203 56.3894 49.7549C56.9147 49.7435 58.4804 49.2316 58.2074 49.8587ZM52.1437 41.2941C51.9579 41.5371 51.7835 42.3054 51.6827 42.0687C51.4813 41.5952 51.5249 41.4031 51.9464 41.0117C52.1884 41.1498 52.042 41.0096 52.1437 41.2941ZM48.2472 48.8808C48.6677 48.4416 48.5743 48.5392 48.5379 49.0657C48.4985 49.4488 48.3521 49.3086 48.2472 48.8808Z" fill="black"/>
<path d="M43.0226 50.3802C43.358 50.4207 44.1274 50.6429 44.227 50.8319C44.4762 51.3043 44.2021 51.8836 43.7266 51.9896C43.0621 52.1952 42.0083 52.0747 41.3427 52.2326L39.0534 52.4257C37.2447 52.7518 34.6075 52.3313 32.6867 51.8953C30.7638 51.3637 29.5604 50.9599 27.6905 50.6661C27.3073 50.6266 27.0613 50.2975 26.8183 50.1116C26.5255 49.8313 24.4624 49.4462 23.3463 48.6581C22.715 48.194 21.7567 48.0715 21.6435 47.2617C21.5313 46.4996 21.4773 46.2141 21.6061 45.5423C21.7369 44.9661 22.3557 44.857 22.392 44.3306C22.5218 43.7066 22.9911 43.3141 23.4614 42.9694C23.8373 42.6745 24.8766 42.1263 25.2005 41.6414C25.6168 41.0112 26.1412 40.952 26.6561 40.463C27.2666 39.9719 27.8782 39.5285 28.5852 39.0831C30.4707 37.8952 31.8288 36.6233 33.8513 35.1458C34.2749 34.8499 35.0816 34.5934 35.2623 34.1117C34.9248 33.9757 34.252 33.7992 34.1025 33.5157C34.196 33.4181 34.3849 33.3185 34.334 33.1762C34.1824 32.7973 33.9488 33.0413 33.7671 33.4753C33.3819 33.3403 32.95 33.2541 32.5679 33.2624C31.8993 33.277 31.3314 33.5283 30.7125 33.6373C30.7562 33.4452 30.8974 33.3466 30.7063 33.3507C30.2287 33.3611 29.9723 34.7524 29.5362 34.4752C28.9548 34.1056 29.287 34.0028 28.716 34.1108C27.8594 34.2728 27.9715 32.8368 28.3463 32.4942C28.907 31.9086 29.369 31.1818 30.2785 31.2576C30.5661 31.2991 30.6066 30.9637 30.8433 30.863C31.27 30.7104 31.6563 30.8931 32.0872 30.9315C33.7131 30.9917 35.0992 31.0093 36.5528 31.9334C37.1342 32.303 37.7188 32.8159 38.0666 33.4295C38.4653 34.1853 38.1373 34.4792 37.8185 35.2029C37.4105 36.2152 36.2653 36.2879 35.7098 37.1123C35.2883 37.5037 35.198 37.7446 34.5324 37.9024C33.3436 38.1672 31.4706 39.9282 31.3772 40.0258C31.0055 40.5117 29.9662 41.0599 29.637 41.306C29.4014 41.4545 29.311 41.6954 29.1241 41.8906C28.7514 42.3287 26.7278 43.7584 26.5856 43.8093C26.2544 43.9599 25.8308 44.2558 25.5505 44.5486C25.1788 45.0345 24.5704 45.6212 24.3907 46.1507C24.8683 46.1403 25.8921 47.0737 26.4694 47.2522C28.3985 48.0704 31.5289 49.1968 33.5878 49.391C35.5034 49.5882 37.4222 49.9287 39.3409 50.2692C40.156 50.3948 40.9741 50.6637 41.8307 50.5017C42.2107 50.3979 42.2107 50.3979 42.5014 50.5827C42.7911 50.7198 42.7849 50.4332 43.0226 50.3802ZM44.9414 50.7208C46.1821 50.646 46.1011 51.3167 44.9559 51.3894C44.5261 51.3988 44.6548 50.727 44.9414 50.7208Z" fill="black"/>
<path d="M20.9904 36.7158C21.1389 36.9515 20.9126 37.5298 21.1545 37.6679C21.2033 37.7146 21.195 37.3325 21.2936 37.4737C21.5387 37.7551 20.8243 37.8662 20.4942 38.0645C20.0218 38.3137 20.1173 38.3116 19.9854 38.8401L20.081 38.8381C19.9958 39.3177 19.1808 39.1921 19.1881 39.5264C19.2068 40.3861 18.8714 40.3456 18.5485 40.8783C18.2215 41.2199 17.803 41.7546 17.4272 42.0495C17.0046 42.3932 14.5803 45.1695 13.9771 45.995C13.7456 46.3345 13.5016 46.1009 13.2711 46.4882C13.1807 46.7291 13.0894 46.9222 12.9035 47.1651C12.6263 47.6012 12.2899 47.513 12.0158 48.0923C11.8788 48.382 10.2415 49.9945 9.91648 50.4316C9.63719 50.7722 9.54894 51.1086 9.16894 51.2124C8.22204 51.6153 7.31255 53.7375 6.66261 54.6118C6.29196 55.1454 4.92976 56.2263 4.70551 56.9001C4.52278 57.2864 4.67022 57.4743 4.48541 57.765C4.11268 58.2032 3.83859 58.7826 3.41809 59.2218C3.13776 59.5146 3.24368 59.9901 3.01111 60.2818C2.73494 60.7657 2.04655 59.8728 1.84303 59.3038C1.23146 57.5491 2.49813 56.4703 3.28512 55.3064C4.21019 53.9006 5.23287 52.5882 6.20674 51.2291C7.22422 49.6779 8.4909 48.5991 9.50941 47.0956C9.87903 46.5142 10.4978 46.4052 10.7657 45.5392C11.0419 45.0554 10.3493 43.9715 10.1468 43.4502C9.84365 42.6923 9.40653 42.3673 9.10542 41.7049C8.70671 40.9491 8.99016 40.7996 8.49904 40.1891C8.254 39.9077 8.28929 39.3335 8.04634 39.1477C7.36418 38.5413 7.34651 37.7294 7.05267 37.4013C6.41308 36.5551 6.55428 36.4565 5.96869 35.8959C5.82229 35.7557 5.53676 35.8097 5.38725 35.5262C5.33429 35.2885 5.28133 35.0507 5.37374 34.9054C5.46718 34.8078 5.56166 34.7579 5.65407 34.6126C5.88248 34.1298 5.88144 34.082 6.31232 34.1204C6.50336 34.1162 6.78681 33.9667 6.88961 34.299C6.99032 34.5357 6.70168 34.4464 6.80032 34.5876C6.90415 34.9676 6.9 34.7766 7.19176 35.0091C7.48248 35.194 7.96424 35.3746 8.20824 35.6082C8.94335 36.4523 8.40344 35.7951 9.09495 36.8313C9.83422 37.8664 10.3357 38.9545 10.9888 40.4216C11.6419 41.8887 11.9109 43.2685 12.5909 43.7793C12.6875 43.825 14.412 41.8284 14.6913 41.4878C15.0132 40.9074 15.2956 40.7101 15.8137 40.3644C16.3318 40.0186 16.8 39.5784 17.2236 39.2825C17.4126 39.1828 17.5548 39.1319 17.7428 38.9845C17.9317 38.8848 17.8757 38.5038 18.0677 38.5474C18.4021 38.5401 18.2982 38.1601 18.536 38.1071C18.589 38.3449 18.5973 38.727 18.7374 38.5806C18.9254 38.4331 18.8226 38.1009 18.9596 37.8112C19.1859 37.2329 19.0458 37.3793 19.377 37.2287C19.6137 37.128 19.7964 36.7418 19.9439 36.9297C20.0903 37.0699 19.8567 37.3139 20.0456 37.2142C20.1868 37.1156 20.1328 36.83 20.3218 36.7304C20.2803 37.018 20.2865 37.3045 20.4755 37.2048C20.7112 37.0564 20.7921 36.3856 20.9904 36.7158ZM19.2753 39.1423C19.3189 38.9502 19.2223 38.9045 19.0801 38.9554C19.0842 39.1464 19.1341 39.2409 19.2753 39.1423ZM19.4466 38.2307C19.4933 38.1819 19.3936 37.9929 19.3936 37.9929C19.296 37.8995 19.2493 37.9483 19.2026 37.9971C19.1081 38.0469 19.2098 38.3314 19.2566 38.2826C19.3033 38.2338 19.4019 38.375 19.4466 38.2307ZM20.7745 37.7717C20.8202 37.6752 20.8181 37.5797 20.816 37.4841C20.6717 37.4395 20.4744 37.1571 20.382 37.3024C20.2439 37.5444 20.4859 37.6824 20.7745 37.7717ZM20.8596 37.292C20.8544 37.0532 20.8077 37.102 20.7101 37.0086C20.7153 37.2474 20.7164 37.2952 20.8596 37.292ZM23.1469 34.8053C23.2964 35.0888 23.2507 35.1853 23.0597 35.1895C23.0566 35.0462 23.0535 34.9029 23.0971 34.7109C23.1459 34.7576 23.1469 34.8053 23.1469 34.8053ZM22.0256 35.9765C21.927 35.8353 21.9301 35.9786 21.874 35.5976C22.0162 35.5467 22.1585 35.4958 22.1626 35.6869C22.1222 36.0222 22.1658 35.8301 22.0256 35.9765ZM22.4492 35.6806C22.6423 35.772 22.8292 35.5768 22.5987 35.9641C22.5022 35.9184 22.5001 35.8229 22.4492 35.6806ZM22.8396 36.0544C22.7898 35.9599 22.7887 35.9121 22.7835 35.6733C23.0701 35.6671 23.1666 35.7128 22.9362 36.1001C22.8905 36.1966 22.8417 36.1499 22.8396 36.0544ZM22.3599 35.9693C22.4139 36.2548 22.6974 36.1053 22.6081 36.3939C22.5188 36.6825 22.0993 37.1695 21.9062 37.0781C21.7608 36.9857 21.847 36.5538 21.7069 36.7002C21.4276 37.0408 21.5387 37.7551 21.385 37.2806C21.2812 36.9006 21.1867 36.9504 21.0361 36.6192C21.1316 36.6172 21.2749 36.614 21.3684 36.5164C21.2718 36.4708 21.2697 36.3752 21.2209 36.3285C21.3123 36.1354 21.5085 36.37 21.6529 36.4147C21.6477 36.1759 21.4099 36.2288 21.4545 36.0845C21.4981 35.8924 21.4992 35.9402 21.6414 35.8893C21.8377 36.124 21.9872 36.4074 22.226 36.4022L22.1689 35.9734L22.3599 35.9693ZM21.1213 36.1396L21.1275 36.4261C20.9852 36.477 20.6 36.342 20.7433 36.3389C20.9821 36.3337 20.8326 36.0503 21.1213 36.1396Z" fill="black"/>
</svg>
