<svg width="182" height="181" viewBox="0 0 182 181" fill="none" xmlns="http://www.w3.org/2000/svg">
<path d="M140.116 73.4041C145.718 74.692 150.732 77.1868 155.159 80.8886C159.608 84.4924 163.192 88.9299 165.913 94.201C168.656 99.3741 170.421 105.2 171.208 111.679C172.094 118.18 171.736 124.911 170.136 131.873C168.535 138.835 165.966 145.059 162.429 150.543C158.892 156.027 154.699 160.535 149.852 164.067C145.102 167.621 139.879 170.085 134.182 171.46C128.606 172.759 122.968 172.753 117.267 171.443C111.665 170.155 106.639 167.709 102.19 164.105C97.764 160.403 94.1906 155.917 91.4702 150.646C88.7497 145.374 86.9468 139.488 86.0613 132.987C85.2741 126.509 85.6807 119.788 87.2812 112.826C88.8817 105.864 91.4506 99.6409 94.988 94.1564C98.6236 88.6946 102.805 84.2358 107.531 80.7798C112.281 77.2259 117.443 74.7993 123.019 73.5002C128.716 72.1257 134.415 72.0936 140.116 73.4041ZM138.284 77.3191C134.746 76.5057 131.179 76.7181 127.583 77.9562C124.01 79.0963 120.626 81.2092 117.433 84.2951C114.339 87.4035 111.495 91.4471 108.902 96.4259C106.407 101.427 104.37 107.36 102.792 114.224C101.102 121.578 100.268 128.355 100.291 134.555C100.337 140.657 101.127 146 102.66 150.585C104.193 155.171 106.333 158.915 109.08 161.817C111.949 164.645 115.25 166.488 118.985 167.346C122.523 168.16 126.079 167.997 129.653 166.857C133.249 165.618 136.643 163.456 139.836 160.371C143.051 157.187 145.907 153.094 148.402 148.093C150.995 143.114 153.08 137.193 154.658 130.329C156.349 122.974 157.122 116.235 156.978 110.111C156.932 104.009 156.143 98.6655 154.61 94.0803C153.077 89.4951 150.876 85.7888 148.008 82.9613C145.26 80.0585 142.019 78.1777 138.284 77.3191Z" fill="#FFF9F1"/>
<path d="M30.387 21.7186L52.9018 49.2089C53.335 49.8433 53.8476 50.102 54.4397 49.9848C54.5384 49.9653 54.7463 49.4611 55.0633 48.4724L63.5108 17.3233C64.0063 15.6819 64.3041 14.3369 64.4042 13.2882C64.5043 12.2395 64.5151 11.5171 64.4367 11.1211C64.182 9.83399 63.5713 9.08031 62.6048 8.86005C61.6383 8.63979 60.6026 8.58758 59.4975 8.70341C58.4715 8.7007 57.4948 8.68823 56.5675 8.666C55.7193 8.52522 55.1874 7.91028 54.9719 6.82119C54.7367 5.63308 55.4086 4.88278 56.9874 4.57028C57.9742 4.37497 59.3851 4.25005 61.2202 4.19552C63.1539 4.12146 65.4035 3.83053 67.9692 3.32272C71.2256 2.6782 73.6237 2.10067 75.1634 1.59016C76.7031 1.07964 77.6209 0.795096 77.917 0.736503C79.3971 0.443537 80.2548 0.891103 80.49 2.0792C80.6467 2.87127 80.5572 3.45488 80.2212 3.83004C79.984 4.18565 79.6285 4.46179 79.1547 4.65846C78.6809 4.85512 78.1084 5.07132 77.4372 5.30704C76.7465 5.44376 76.0851 5.72899 75.4531 6.16274C73.8932 7.08882 72.6975 8.56012 71.866 10.5766C71.015 12.4942 70.1335 15.035 69.2216 18.1993L58.1623 54.8039C58.0629 55.338 57.9831 55.9712 57.9229 56.7033C57.8627 57.4354 57.8816 58.049 57.9796 58.544L63.5645 86.7615C64.1132 89.5337 64.7518 91.4651 65.4804 92.5555C66.1893 93.547 67.6783 94.0754 69.9472 94.1407C70.7758 94.1825 71.5355 94.135 72.2263 93.9983C72.917 93.8616 73.5287 93.8434 74.0613 93.9438C74.673 93.9256 75.1562 94.0357 75.5111 94.2742C75.8659 94.5126 76.1217 95.0278 76.2785 95.8199C76.5528 97.206 75.6538 98.1042 73.5816 98.5143C72.6935 98.6901 71.0358 98.8638 68.6088 99.0356C66.2803 99.1877 63.1919 99.6447 59.3434 100.406C55.4949 101.168 52.4159 101.932 50.1063 102.698C47.8955 103.444 46.346 103.905 45.4579 104.081C43.3856 104.491 42.1927 103.904 41.8792 102.32C41.742 101.627 41.8414 101.093 42.1773 100.717C42.5132 100.342 42.9675 100.047 43.5399 99.8303C44.1124 99.6142 44.7934 99.4279 45.5828 99.2717C46.3722 99.1154 47.1323 98.8107 47.8629 98.3574C49.6203 97.3923 50.5787 96.2766 50.7383 95.0103C50.8783 93.6451 50.6641 91.5269 50.0958 88.6556L45.187 63.8539C45.1086 63.4579 44.9021 62.9329 44.5676 62.2789C44.2135 61.5259 43.8394 60.9312 43.4454 60.4947L17.8274 29.7604C13.0012 24.0279 9.56283 20.6444 7.51226 19.6099C6.72352 19.2515 5.97397 19.0912 5.26362 19.1289C4.45459 19.1862 3.75403 19.2734 3.16195 19.3906C2.4516 19.4283 1.87947 19.3872 1.44556 19.2673C0.912969 19.1669 0.578087 18.7702 0.440915 18.0772C0.342934 17.5821 0.540992 17.0285 1.03509 16.4162C1.4305 15.8235 2.07227 15.4393 2.96039 15.2635C4.14454 15.0292 6.2462 14.7675 9.26538 14.4786C12.3832 14.1702 16.3598 13.5375 21.1951 12.5804C24.7476 11.8773 27.4417 11.2412 29.2774 10.6721C31.1131 10.103 32.2283 9.77937 32.623 9.70125C33.8072 9.46688 34.5266 9.99324 34.7814 11.2804C34.9774 12.2704 34.71 12.9921 33.9794 13.4454C33.3474 13.8791 32.5576 14.2927 31.61 14.686C30.7611 15.0598 29.9811 15.5228 29.27 16.0751C28.6381 16.5089 28.4299 17.2703 28.6454 18.3594C28.861 19.4485 29.4415 20.5682 30.387 21.7186Z" fill="#FFF9F1"/>
</svg>
